<?xml version="1.0" standalone="no"?>
<!DOCTYPE svg PUBLIC "-//W3C//DTD SVG 20010904//EN"
 "http://www.w3.org/TR/2001/REC-SVG-20010904/DTD/svg10.dtd">
<svg version="1.0" xmlns="http://www.w3.org/2000/svg"
 width="202.000000pt" height="202.000000pt" viewBox="0 0 202.000000 202.000000"
 preserveAspectRatio="xMidYMid meet">

<g transform="translate(0.000000,202.000000) scale(0.100000,-0.100000)"
fill="#000000" stroke="none">
<path d="M983 1928 c-6 -7 -27 -44 -48 -83 -72 -133 -138 -232 -301 -451 -186
-251 -237 -352 -282 -559 -15 -68 -14 -107 3 -192 27 -129 51 -190 116 -283
97 -141 209 -218 379 -261 416 -106 811 210 811 651 1 182 -65 340 -239 575
-53 72 -99 132 -102 135 -32 28 -238 349 -280 435 -22 45 -40 55 -57 33z m-95
-828 c31 -13 67 -40 87 -63 l34 -40 27 33 c46 55 98 81 172 86 60 5 73 3 122
-23 165 -85 174 -315 19 -473 -63 -65 -197 -185 -281 -252 -68 -55 -64 -56
-154 24 -33 29 -80 70 -105 91 -109 94 -201 193 -227 246 -23 48 -27 68 -27
141 1 100 21 149 84 201 71 60 156 70 249 29z"/>
</g>
</svg>
